<svg xmlns="http://www.w3.org/2000/svg" width="24" height="24">
    <defs>
        <path id="a" d="M0 0h24v24H0V0Z" />
        <path id="b" d="M0 0h24v26.25H0V0Z" />
    </defs>
    <g fill="none" transform="rotate(45 14.772 13.167)">
        <circle cx="12" cy="14.25" r="11" stroke="currentColor" stroke-width="2" />
        <path fill="currentColor" fill-rule="evenodd"
            d="M12 0a4 4 0 0 1 4 4v6.25a4 4 0 1 1-8 0V4a4 4 0 0 1 4-4Zm0 .646a.75.75 0 1 0 0 1.5.75.75 0 0 0 0-1.5Z" />
    </g>
</svg>