<svg xmlns="http://www.w3.org/2000/svg" xmlns:xlink="http://www.w3.org/1999/xlink" width="128" height="128" viewBox="0 0 128 128">
  <defs>
    <radialGradient id="radial-gradient" cx="0.5" cy="0.5" r="0.5" gradientUnits="objectBoundingBox">
      <stop offset="0" stop-color="#6eacfd"/>
      <stop offset="1" stop-color="#1376f8"/>
    </radialGradient>
    <clipPath id="clip-King_Blue">
      <rect width="128" height="128"/>
    </clipPath>
  </defs>
  <g id="King_Blue" data-name="King Blue" clip-path="url(#clip-King_Blue)">
    <path id="Path_28" data-name="Path 28" d="M18,0h92a18,18,0,0,1,18,18v92a18,18,0,0,1-18,18H18A18,18,0,0,1,0,110V18A18,18,0,0,1,18,0Z" opacity="0.997" fill="url(#radial-gradient)"/>
    <g id="crown" transform="translate(13.397 -67.402)">
      <path id="Path_23" data-name="Path 23" d="M90.939,93.6a8.267,8.267,0,0,0-8.267,8.267,8.177,8.177,0,0,0,.413,2.55l-6.7,4.262a10.334,10.334,0,0,1-13.55-2.17l-6.572-8.04A8.172,8.172,0,0,0,57.871,93.6a8.267,8.267,0,0,0-16.534,0,8.172,8.172,0,0,0,1.612,4.869l-6.572,8.04a10.334,10.334,0,0,1-13.546,2.17l-6.709-4.262a8.167,8.167,0,0,0,.413-2.55A8.267,8.267,0,1,0,7.545,110.1l4.886,29.307a2.067,2.067,0,0,0,2.038,1.728h70.27a2.067,2.067,0,0,0,2.038-1.728L91.662,110.1a8.267,8.267,0,0,0-.723-16.5Z" transform="translate(-0.001 0)" fill="#74b1ff"/>
      <path id="Path_27" data-name="Path 27" d="M35.135,0C54.54,0,70.27,4.627,70.27,10.334S54.54,20.668,35.135,20.668,0,16.041,0,10.334,15.731,0,35.135,0Z" transform="translate(14.468 128.736)" fill="#74b1ff"/>
      <path id="Path_24" data-name="Path 24" d="M101.2,323.469c-18.489,0-37.2-4.257-37.2-12.4s18.713-12.4,37.2-12.4,37.2,4.257,37.2,12.4S119.694,323.469,101.2,323.469Zm0-20.668c-21.709,0-33.068,5.374-33.068,8.267s11.359,8.267,33.068,8.267,33.068-5.374,33.068-8.267S122.914,302.8,101.2,302.8Z" transform="translate(-51.602 -171.998)" fill="#ffd54f"/>
      <path id="Path_25" data-name="Path 25" d="M101.2,323.469c-18.489,0-37.2-4.257-37.2-12.4s18.713-12.4,37.2-12.4,37.2,4.257,37.2,12.4S119.694,323.469,101.2,323.469Zm0-20.668c-21.709,0-33.068,5.374-33.068,8.267s11.359,8.267,33.068,8.267,33.068-5.374,33.068-8.267S122.914,302.8,101.2,302.8Z" transform="translate(-51.602 -171.998)"/>
      <path id="Path_26" data-name="Path 26" d="M84.738,141.138a1.981,1.981,0,0,1-.343-.029,2.067,2.067,0,0,1-1.7-2.377l5.183-31.1a2.067,2.067,0,0,1,.827-1.343,2.117,2.117,0,0,1,1.542-.356,4.179,4.179,0,0,0,4.824-4.059,4.134,4.134,0,1,0-7.61,2.212,2.067,2.067,0,0,1-.632,2.852L78.6,112.17a14.467,14.467,0,0,1-18.965-3.046l-7.722-9.437a2.067,2.067,0,0,1,.285-2.893,4.134,4.134,0,1,0-5.192,0,2.067,2.067,0,0,1,.285,2.893l-7.722,9.437a14.467,14.467,0,0,1-18.965,3.046l-8.23-5.233a2.067,2.067,0,0,1-.632-2.852,4.134,4.134,0,1,0-7.61-2.215,4.187,4.187,0,0,0,4.807,4.059,2.1,2.1,0,0,1,1.542.356,2.067,2.067,0,0,1,.827,1.343l5.183,31.1a2.067,2.067,0,0,1-4.076.678l-4.873-29.3a8.267,8.267,0,1,1,8.99-8.238,8.178,8.178,0,0,1-.413,2.55l6.7,4.262a10.334,10.334,0,0,0,13.55-2.17l6.576-8.036A8.164,8.164,0,0,1,41.336,93.6a8.267,8.267,0,1,1,16.534,0,8.164,8.164,0,0,1-1.616,4.869l6.576,8.04a10.334,10.334,0,0,0,13.546,2.174l6.709-4.266a8.166,8.166,0,0,1-.413-2.55,8.267,8.267,0,1,1,8.99,8.238l-4.886,29.3A2.067,2.067,0,0,1,84.738,141.138Z" transform="translate(0 -0.001)"/>
    </g>
    <text id="THE_KING" data-name="THE KING" transform="translate(27 108)" font-size="20" font-family="HelveticaNeue-CondensedBold, Helvetica Neue" font-weight="700"><tspan x="0" y="0">THE KING</tspan></text>
  </g>
</svg>
