<svg xmlns="http://www.w3.org/2000/svg" xmlns:xlink="http://www.w3.org/1999/xlink" width="128" height="128" viewBox="0 0 128 128"><defs><radialGradient id="a" cx="0.5" cy="0.5" r="0.5" gradientUnits="objectBoundingBox"><stop offset="0" stop-color="#6eacfd"/><stop offset="1" stop-color="#1376f8"/></radialGradient><filter id="b" x="39" y="-3" width="51" height="97.61" filterUnits="userSpaceOnUse"><feOffset dy="3" input="SourceAlpha"/><feGaussianBlur stdDeviation="3" result="c"/><feFlood flood-opacity="0.161"/><feComposite operator="in" in2="c"/><feComposite in="SourceGraphic"/></filter><clipPath id="e"><rect width="128" height="128"/></clipPath></defs><g id="d" clip-path="url(#e)"><circle cx="54.5" cy="54.5" r="54.5" transform="translate(10 15)" fill="#6eacfd"/><circle cx="54.5" cy="54.5" r="54.5" transform="translate(10 8)" fill="url(#a)"/><rect width="128" height="128" fill="none"/><g transform="matrix(1, 0, 0, 1, 0, 0)" filter="url(#b)"><path d="M16.5,0C25.613,0,33,7.841,33,17.514V62.1c0,9.673-7.387,17.514-16.5,17.514S0,71.769,0,62.1V17.514C0,7.841,7.387,0,16.5,0Z" transform="translate(48 3)" fill="#00ffeb"/></g><path d="M16.5,0C25.613,0,33,7.841,33,17.514V62.1c0,9.673-7.387,17.514-16.5,17.514S0,71.769,0,62.1V17.514C0,7.841,7.387,0,16.5,0Z" transform="translate(48)"/><g transform="translate(-2.457 -7)"><line x1="6.914" transform="translate(63.5 14.705)" fill="none" stroke="#00ffeb" stroke-linecap="round" stroke-width="3"/><line y1="6.914" transform="translate(66.957 11.248)" fill="none" stroke="#00ffeb" stroke-linecap="round" stroke-width="3"/></g></g></svg>