<svg xmlns="http://www.w3.org/2000/svg" xmlns:xlink="http://www.w3.org/1999/xlink" width="128" height="128" viewBox="0 0 128 128"><defs><radialGradient id="a" cx="0.5" cy="0.5" r="0.5" gradientUnits="objectBoundingBox"><stop offset="0" stop-color="#f05454"/><stop offset="1" stop-color="#ba2525"/></radialGradient><clipPath id="c"><rect width="128" height="128"/></clipPath></defs><g id="b" clip-path="url(#c)"><circle cx="54.5" cy="54.5" r="54.5" transform="translate(10 15)" fill="#f05454"/><g transform="translate(10 8)" stroke="#ba2525" stroke-width="3" fill="url(#a)"><circle cx="54.5" cy="54.5" r="54.5" stroke="none"/><circle cx="54.5" cy="54.5" r="53" fill="none"/></g><rect width="128" height="128" fill="none"/><path d="M16.5,0C25.613,0,33,7.841,33,17.514V62.1c0,9.673-7.387,17.514-16.5,17.514S0,71.769,0,62.1V17.514C0,7.841,7.387,0,16.5,0Z" transform="translate(48 3)" fill="#ff7600"/><path d="M16.5,0C25.613,0,33,7.841,33,17.514V62.1c0,9.673-7.387,17.514-16.5,17.514S0,71.769,0,62.1V17.514C0,7.841,7.387,0,16.5,0Z" transform="translate(48)"/><g transform="translate(-2.457 -7)"><line x1="6.914" transform="translate(63.5 14.705)" fill="none" stroke="#ff7600" stroke-linecap="round" stroke-width="3"/><line y1="6.914" transform="translate(66.957 11.248)" fill="none" stroke="#ff7600" stroke-linecap="round" stroke-width="3"/></g></g></svg>