<svg xmlns="http://www.w3.org/2000/svg" xmlns:xlink="http://www.w3.org/1999/xlink" width="128" height="128" viewBox="0 0 128 128">
  <defs>
    <filter id="Path_29" x="119" y="-9" width="18" height="146" filterUnits="userSpaceOnUse">
      <feOffset input="SourceAlpha"/>
      <feGaussianBlur stdDeviation="3" result="blur"/>
      <feFlood flood-opacity="0.584"/>
      <feComposite operator="in" in2="blur"/>
      <feComposite in="SourceGraphic"/>
    </filter>
    <radialGradient id="radial-gradient" cx="0.5" cy="0.5" r="0.707" gradientTransform="translate(0.383 -0.09) rotate(45) scale(1 0.669)" gradientUnits="objectBoundingBox">
      <stop offset="0" stop-color="#e07171"/>
      <stop offset="1" stop-color="#ba2525"/>
    </radialGradient>
    <linearGradient id="linear-gradient" x1="0.5" x2="0.5" y2="1" gradientUnits="objectBoundingBox">
      <stop offset="0" stop-color="#fff"/>
      <stop offset="1" stop-color="#d1d1d1"/>
    </linearGradient>
    <clipPath id="clip-Laser_Red">
      <rect width="128" height="128"/>
    </clipPath>
  </defs>
  <g id="Laser_Red" data-name="Laser Red" clip-path="url(#clip-Laser_Red)">
    <g transform="matrix(1, 0, 0, 1, 0, 0)" filter="url(#Path_29)">
      <g id="Path_29-2" data-name="Path 29" fill="none">
        <path d="M128,0V0Z" stroke="none"/>
        <path d="M 128 0 L 128 128 L 128 0 Z" stroke="none" fill="#7b7b7b"/>
      </g>
    </g>
    <g id="Path_28" data-name="Path 28" fill="url(#radial-gradient)">
      <path d="M 110 126.5 L 18 126.5 C 13.59269046783447 126.5 9.44918155670166 124.7837066650391 6.332745552062988 121.6672515869141 C 3.216290950775146 118.5508193969727 1.5 114.4073104858398 1.5 110 L 1.5 18 C 1.5 13.59269046783447 3.216290950775146 9.44918155670166 6.332745552062988 6.332745552062988 C 9.44918155670166 3.216290950775146 13.59269046783447 1.5 18 1.5 L 110 1.5 C 114.4073104858398 1.5 118.5508193969727 3.216290950775146 121.6672515869141 6.332745552062988 C 124.7837066650391 9.44918155670166 126.5 13.59269046783447 126.5 18 L 126.5 110 C 126.5 114.4073104858398 124.7837066650391 118.5508193969727 121.6672515869141 121.6672515869141 C 118.5508193969727 124.7837066650391 114.4073104858398 126.5 110 126.5 Z" stroke="none"/>
      <path d="M 18 3 C 13.99336242675781 3 10.22651672363281 4.560279846191406 7.393402099609375 7.393402099609375 C 4.560279846191406 10.22651672363281 3 13.99336242675781 3 18 L 3 110 C 3 114.0066375732422 4.560279846191406 117.7734832763672 7.393402099609375 120.6065979003906 C 10.22651672363281 123.4397201538086 13.99336242675781 125 18 125 L 110 125 C 114.0066375732422 125 117.7734832763672 123.4397201538086 120.6065979003906 120.6065979003906 C 123.4397201538086 117.7734832763672 125 114.0066375732422 125 110 L 125 18 C 125 13.99336242675781 123.4397201538086 10.22651672363281 120.6065979003906 7.393402099609375 C 117.7734832763672 4.560279846191406 114.0066375732422 3 110 3 L 18 3 M 18 0 L 110 0 C 119.9411163330078 0 128 8.058883666992188 128 18 L 128 110 C 128 119.9411163330078 119.9411163330078 128 110 128 L 18 128 C 8.058883666992188 128 0 119.9411163330078 0 110 L 0 18 C 0 8.058883666992188 8.058883666992188 0 18 0 Z" stroke="none" fill="#000"/>
    </g>
    <g id="Group_1" data-name="Group 1" transform="translate(0 1)">
      <g id="Path_33" data-name="Path 33" transform="translate(48 5)">
        <path d="M 16.5 72.11042785644531 C 12.48806667327881 72.11042785644531 8.717700004577637 70.57844543457031 5.88343334197998 67.79669952392578 C 3.056733369827271 65.02236938476562 1.5 61.3358154296875 1.5 57.4161376953125 L 1.5 16.19429206848145 C 1.5 12.27461433410645 3.056733369827271 8.588058471679688 5.88343334197998 5.813735961914062 C 8.717700004577637 3.031980514526367 12.48806667327881 1.500002861022949 16.5 1.500002861022949 C 20.51193428039551 1.500002861022949 24.28230094909668 3.031980514526367 27.11656761169434 5.813735961914062 C 29.94326591491699 8.588058471679688 31.5 12.27461433410645 31.5 16.19429206848145 L 31.5 57.4161376953125 C 31.5 61.3358154296875 29.94326591491699 65.02236938476562 27.11656761169434 67.79669952392578 C 24.28230094909668 70.57844543457031 20.51193428039551 72.11042785644531 16.5 72.11042785644531 Z" stroke="none"/>
        <path d="M 16.5 3 C 12.88344764709473 3 9.486223220825195 4.379463195800781 6.93412971496582 6.884262084960938 C 4.397165298461914 9.374229431152344 3 12.68059158325195 3 16.19429779052734 L 3 57.41613006591797 C 3 60.92983627319336 4.397165298461914 64.23621368408203 6.93412971496582 66.72616577148438 C 9.486223220825195 69.23096466064453 12.88344764709473 70.61042785644531 16.5 70.61042785644531 C 20.11655426025391 70.61042785644531 23.5137767791748 69.23096466064453 26.06587028503418 66.72616577148438 C 28.60283470153809 64.23621368408203 30 60.92983627319336 30 57.41613006591797 L 30 16.19429779052734 C 30 12.68059158325195 28.60283470153809 9.374229431152344 26.06587028503418 6.884262084960938 C 23.5137767791748 4.379463195800781 20.11655426025391 3 16.5 3 M 16.5 0 C 25.61269378662109 0 33 7.250434875488281 33 16.19429779052734 L 33 57.41613006591797 C 33 66.36000061035156 25.61269378662109 73.61042785644531 16.5 73.61042785644531 C 7.387306213378906 73.61042785644531 0 66.36000061035156 0 57.41613006591797 L 0 16.19429779052734 C 0 7.250434875488281 7.387306213378906 0 16.5 0 Z" stroke="none" fill="#000"/>
      </g>
      <path id="Path_34" data-name="Path 34" d="M9.939,0c5.489,0,9.939,2.8,9.939,6.248S15.428,12.5,9.939,12.5,0,9.7,0,6.248,4.45,0,9.939,0Z" transform="translate(54.561 7)" fill="url(#linear-gradient)"/>
      <path id="Path_35" data-name="Path 35" d="M0,0H2" transform="translate(63.5 12.248)" fill="none" stroke="#000" stroke-linecap="round" stroke-width="1"/>
      <line id="Line_2" data-name="Line 2" x1="2" transform="translate(63.5 12.248)" fill="none" stroke="#000" stroke-linecap="round" stroke-width="1"/>
      <line id="Line_3" data-name="Line 3" y1="2" transform="translate(64.5 11.248)" fill="none" stroke="#000" stroke-linecap="round" stroke-width="1"/>
    </g>
  </g>
</svg>
