<svg xmlns="http://www.w3.org/2000/svg" xmlns:xlink="http://www.w3.org/1999/xlink" width="128" height="128" viewBox="0 0 128 128">
  <defs>
    <radialGradient id="radial-gradient" cx="0.5" cy="0.5" r="0.588" gradientTransform="matrix(0.689, 0.725, -0.386, 0.368, 0.349, -0.046)" gradientUnits="objectBoundingBox">
      <stop offset="0" stop-color="#ffb1b1"/>
      <stop offset="1" stop-color="#ffb7b7"/>
    </radialGradient>
    <linearGradient id="linear-gradient" x1="0.504" y1="2.03" x2="0.513" y2="-0.079" gradientUnits="objectBoundingBox">
      <stop offset="0" stop-color="#d0fdff"/>
      <stop offset="1" stop-color="#ededed"/>
    </linearGradient>
    <radialGradient id="radial-gradient-2" cx="0.5" cy="0.5" r="0.5" gradientUnits="objectBoundingBox">
      <stop offset="0" stop-color="#e07171"/>
      <stop offset="1" stop-color="#ba2525"/>
    </radialGradient>
    <clipPath id="clip-Deflector_Red">
      <rect width="128" height="128"/>
    </clipPath>
  </defs>
  <g id="Deflector_Red" data-name="Deflector Red" clip-path="url(#clip-Deflector_Red)">
    <path id="Path_28" data-name="Path 28" d="M18,0h92a18,18,0,0,1,18,18v92a18,18,0,0,1-18,18H18A18,18,0,0,1,0,110V18A18,18,0,0,1,18,0Z" fill="url(#radial-gradient)"/>
    <rect id="Rectangle_2" data-name="Rectangle 2" width="181.019" height="26" rx="13" transform="translate(9.192 -9.192) rotate(45)" fill="url(#linear-gradient)"/>
    <path id="Path_32" data-name="Path 32" d="M0,0S14.944-2.923,36.85.2,87.622,12.472,87.622,12.472,115.938,3.211,139.3.162a154.9,154.9,0,0,1,41.78.115L90.5,90.5Z" transform="translate(127.986 128) rotate(-135)" fill="url(#radial-gradient-2)"/>
  </g>
</svg>
