<svg xmlns="http://www.w3.org/2000/svg" xmlns:xlink="http://www.w3.org/1999/xlink" width="128" height="128" viewBox="0 0 128 128">
  <defs>
    <radialGradient id="radial-gradient" cx="0.5" cy="0.5" r="0.5" gradientUnits="objectBoundingBox">
      <stop offset="0" stop-color="#db2929"/>
      <stop offset="1" stop-color="#6e1515"/>
    </radialGradient>
    <clipPath id="clip-red-defender">
      <rect width="128" height="128"/>
    </clipPath>
  </defs>
  <g id="red-defender" clip-path="url(#clip-red-defender)">
    <g id="Piece_Background" data-name="Piece Background" transform="translate(4 4)">
      <path id="Piece_Background-2" data-name="Piece Background" d="M18.151,0h83.7A18.39,18.39,0,0,1,120,18.621v82.759A18.39,18.39,0,0,1,101.849,120h-83.7A18.39,18.39,0,0,1,0,101.379V18.621A18.39,18.39,0,0,1,18.151,0Z" fill="rgba(70,70,73,0.94)"/>
    </g>
    <g id="P">
      <path id="Normal" d="M8,0H85a8,8,0,0,1,8,8V84a8,8,0,0,1-8,8H8a8,8,0,0,1-8-8V8A8,8,0,0,1,8,0Z" transform="translate(18 18)" stroke="#000" stroke-linecap="round" stroke-width="10" fill="url(#radial-gradient)"/>
      <path id="Hit" d="M0,8V84a8,8,0,0,0,8,8H85a8,8,0,0,0,8-8V8" transform="translate(18 18)" fill="none" stroke="#ba2525" stroke-linecap="round" stroke-width="11"/>
    </g>
  </g>
</svg>
