<svg xmlns="http://www.w3.org/2000/svg" xmlns:xlink="http://www.w3.org/1999/xlink" width="128" height="128" viewBox="0 0 128 128">
  <defs>
    <radialGradient id="radial-gradient" cx="0.5" cy="0.5" r="0.5" gradientUnits="objectBoundingBox">
      <stop offset="0" stop-color="#e07171"/>
      <stop offset="1" stop-color="#ba2525"/>
    </radialGradient>
    <clipPath id="clip-red-king">
      <rect width="128" height="128"/>
    </clipPath>
  </defs>
  <g id="red-king" clip-path="url(#clip-red-king)">
    <g id="Piece_Background" data-name="Piece Background" transform="translate(4 4)">
      <path id="Piece_Background-2" data-name="Piece Background" d="M18.151,0h83.7A18.39,18.39,0,0,1,120,18.621v82.759A18.39,18.39,0,0,1,101.849,120h-83.7A18.39,18.39,0,0,1,0,101.379V18.621A18.39,18.39,0,0,1,18.151,0Z" fill="url(#radial-gradient)"/>
    </g>
    <g id="k" transform="translate(1 -0.966)">
      <g id="crown" transform="translate(13.397 -67.402)">
        <path id="Path_23" data-name="Path 23" d="M90.939,93.6a8.267,8.267,0,0,0-8.267,8.267,8.177,8.177,0,0,0,.413,2.55l-6.7,4.262a10.334,10.334,0,0,1-13.55-2.17l-6.572-8.04A8.172,8.172,0,0,0,57.871,93.6a8.267,8.267,0,0,0-16.534,0,8.172,8.172,0,0,0,1.612,4.869l-6.572,8.04a10.334,10.334,0,0,1-13.546,2.17l-6.709-4.262a8.167,8.167,0,0,0,.413-2.55A8.267,8.267,0,1,0,7.545,110.1l4.886,29.307a2.067,2.067,0,0,0,2.038,1.728h70.27a2.067,2.067,0,0,0,2.038-1.728L91.662,110.1a8.267,8.267,0,0,0-.723-16.5Z" transform="translate(-0.001 0)" fill="#f05454"/>
        <path id="Path_27" data-name="Path 27" d="M35.135,0C54.54,0,70.27,4.627,70.27,10.334S54.54,20.668,35.135,20.668,0,16.041,0,10.334,15.731,0,35.135,0Z" transform="translate(14.468 128.736)" fill="#f05454"/>
        <path id="Path_24" data-name="Path 24" d="M101.2,323.469c-18.489,0-37.2-4.257-37.2-12.4s18.713-12.4,37.2-12.4,37.2,4.257,37.2,12.4S119.694,323.469,101.2,323.469Zm0-20.668c-21.709,0-33.068,5.374-33.068,8.267s11.359,8.267,33.068,8.267,33.068-5.374,33.068-8.267S122.914,302.8,101.2,302.8Z" transform="translate(-51.602 -171.998)" fill="#ffd54f"/>
        <path id="Path_25" data-name="Path 25" d="M101.2,323.469c-18.489,0-37.2-4.257-37.2-12.4s18.713-12.4,37.2-12.4,37.2,4.257,37.2,12.4S119.694,323.469,101.2,323.469Zm0-20.668c-21.709,0-33.068,5.374-33.068,8.267s11.359,8.267,33.068,8.267,33.068-5.374,33.068-8.267S122.914,302.8,101.2,302.8Z" transform="translate(-51.602 -171.998)"/>
        <path id="Path_26" data-name="Path 26" d="M84.738,141.138a1.981,1.981,0,0,1-.343-.029,2.067,2.067,0,0,1-1.7-2.377l5.183-31.1a2.067,2.067,0,0,1,.827-1.343,2.117,2.117,0,0,1,1.542-.356,4.179,4.179,0,0,0,4.824-4.059,4.134,4.134,0,1,0-7.61,2.212,2.067,2.067,0,0,1-.632,2.852L78.6,112.17a14.467,14.467,0,0,1-18.965-3.046l-7.722-9.437a2.067,2.067,0,0,1,.285-2.893,4.134,4.134,0,1,0-5.192,0,2.067,2.067,0,0,1,.285,2.893l-7.722,9.437a14.467,14.467,0,0,1-18.965,3.046l-8.23-5.233a2.067,2.067,0,0,1-.632-2.852,4.134,4.134,0,1,0-7.61-2.215,4.187,4.187,0,0,0,4.807,4.059,2.1,2.1,0,0,1,1.542.356,2.067,2.067,0,0,1,.827,1.343l5.183,31.1a2.067,2.067,0,0,1-4.076.678l-4.873-29.3a8.267,8.267,0,1,1,8.99-8.238,8.178,8.178,0,0,1-.413,2.55l6.7,4.262a10.334,10.334,0,0,0,13.55-2.17l6.576-8.036A8.164,8.164,0,0,1,41.336,93.6a8.267,8.267,0,1,1,16.534,0,8.164,8.164,0,0,1-1.616,4.869l6.576,8.04a10.334,10.334,0,0,0,13.546,2.174l6.709-4.266a8.166,8.166,0,0,1-.413-2.55,8.267,8.267,0,1,1,8.99,8.238l-4.886,29.3A2.067,2.067,0,0,1,84.738,141.138Z" transform="translate(0 -0.001)"/>
      </g>
      <path id="Path_45" data-name="Path 45" d="M9.36-14.28H.24v2.36H3.36V0H6.24V-11.92H9.36Zm1.24,0V0h2.88V-6.34h3.36V0h2.88V-14.28H16.84v5.46H13.48v-5.46Zm19.1,0H21.72V0H29.9V-2.36H24.6V-6.2h4.8V-8.56H24.6v-3.36h5.1Zm9.32,0H36.14V0h2.88V-4.24l1.06-1.62L43.02,0h3.24L41.94-8.16l3.88-6.12H42.7L39.06-8.56h-.04ZM47.02,0H49.9V-14.28H47.02Zm8.34-14.28H52.04V0h2.64V-10h.04L58.24,0h3.28V-14.28H58.88V-4.5h-.04Zm14.5,4.24h2.76a4.882,4.882,0,0,0-1.04-3.35,4.345,4.345,0,0,0-3.4-1.17,5.12,5.12,0,0,0-2.3.46,3.61,3.61,0,0,0-1.48,1.37,6.316,6.316,0,0,0-.79,2.27,19.154,19.154,0,0,0-.23,3.16,29.368,29.368,0,0,0,.16,3.27,7.257,7.257,0,0,0,.63,2.37,3.145,3.145,0,0,0,1.3,1.42,4.413,4.413,0,0,0,2.15.46,4.016,4.016,0,0,0,1.75-.35,3.035,3.035,0,0,0,1.25-1.19h.04V0h2.12V-7.7H68.12v2.12h1.9v1.46a2.6,2.6,0,0,1-.18,1.01,2.275,2.275,0,0,1-.45.71,1.888,1.888,0,0,1-.58.42,1.4,1.4,0,0,1-.57.14,1.367,1.367,0,0,1-1.01-.39,2.551,2.551,0,0,1-.6-1.12,8.981,8.981,0,0,1-.29-1.77q-.08-1.04-.08-2.32a11.4,11.4,0,0,1,.46-3.84,1.567,1.567,0,0,1,1.5-1.16,1.223,1.223,0,0,1,.75.23,1.863,1.863,0,0,1,.51.58,2.668,2.668,0,0,1,.29.77A3.908,3.908,0,0,1,69.86-10.04Z" transform="translate(27 108)"/>
    </g>
  </g>
</svg>
