<svg xmlns="http://www.w3.org/2000/svg" xmlns:xlink="http://www.w3.org/1999/xlink" width="128" height="128" viewBox="0 0 128 128">
  <defs>
    <clipPath id="clip-Blue_Laser_Slot">
      <rect width="128" height="128"/>
    </clipPath>
  </defs>
  <g id="Blue_Laser_Slot" data-name="Blue Laser Slot" clip-path="url(#clip-Blue_Laser_Slot)">
    <g id="Group_3" data-name="Group 3">
      <rect id="Rectangle_6" data-name="Rectangle 6" width="81" height="81" rx="27" transform="translate(24 24)" fill="#6eacfd"/>
    </g>
    <path id="Modifier_On_Size_20_Theme_Filled" data-name="Modifier=On, Size=20, Theme=Filled" d="M15.166,2a3.613,3.613,0,0,0-3.474,2.621L4.041,31.4A3.613,3.613,0,0,0,7.515,36h4.31L7.847,51.917A3.613,3.613,0,0,0,13.952,55.3L43.461,25.178l.012-.013A3.645,3.645,0,0,0,40.866,19H32.147l4.29-12.224.009-.025A3.613,3.613,0,0,0,33.018,2Z" transform="translate(40.309 35.288)" fill="#1376f8"/>
  </g>
</svg>
