<svg xmlns="http://www.w3.org/2000/svg" xmlns:xlink="http://www.w3.org/1999/xlink" width="128" height="128" viewBox="0 0 128 128">
  <defs>
    <filter id="Path_22" x="3.47" y="5.452" width="121.06" height="121.097" filterUnits="userSpaceOnUse">
      <feOffset dy="2" input="SourceAlpha"/>
      <feGaussianBlur stdDeviation="4" result="blur"/>
      <feFlood flood-opacity="0.396"/>
      <feComposite operator="in" in2="blur"/>
      <feComposite in="SourceGraphic"/>
    </filter>
    <clipPath id="clip-Blue_Laser_Slot">
      <rect width="128" height="128"/>
    </clipPath>
  </defs>
  <g id="Blue_Laser_Slot" data-name="Blue Laser Slot" clip-path="url(#clip-Blue_Laser_Slot)">
    <g id="BackgroundComponent">
      <rect id="Rectangle_3" data-name="Rectangle 3" width="128" height="128" fill="#313134"/>
    </g>
    <g id="White_Lazer" data-name="White Lazer" transform="translate(15.47 15.452)">
      <g transform="matrix(1, 0, 0, 1, -15.47, -15.45)" filter="url(#Path_22)">
        <g id="Path_22-2" data-name="Path 22" transform="translate(-243.28 35.75)" fill="#555" stroke-linecap="round">
          <path d="M 307.2538452148438 73.97058868408203 L 263.6202087402344 30.23764228820801 L 307.2309265136719 30.71906089782715 L 309.2535095214844 30.74139022827148 L 309.2529907226562 28.71866035461426 L 309.241455078125 -15.4672155380249 L 352.9770202636719 28.26130294799805 L 307.2538452148438 73.97058868408203 Z" stroke="none"/>
          <path d="M 311.2427368164062 -10.63809204101562 L 311.2529907226562 28.7181510925293 L 311.2540283203125 32.76361846923828 L 307.2088317871094 32.71895217895508 L 268.4947204589844 32.29157638549805 L 307.2556457519531 71.14076232910156 L 350.1482849121094 28.26119804382324 L 311.2427368164062 -10.63809204101562 M 307.2402038574219 -20.29636383056641 L 355.8057861328125 28.26140213012695 L 307.2520141601562 76.80039978027344 L 258.7457580566406 28.18371772766113 L 307.2529907226562 28.71920204162598 L 307.2402038574219 -20.29636383056641 Z" stroke="none" fill="#6eacfd"/>
        </g>
      </g>
    </g>
  </g>
</svg>
