<svg xmlns="http://www.w3.org/2000/svg" xmlns:xlink="http://www.w3.org/1999/xlink" width="128" height="128" viewBox="0 0 128 128">
  <defs>
    <filter id="Rectangle_1" x="-9" y="-9" width="146" height="146" filterUnits="userSpaceOnUse">
      <feOffset input="SourceAlpha"/>
      <feGaussianBlur stdDeviation="3" result="blur"/>
      <feFlood flood-opacity="0.584"/>
      <feComposite operator="in" in2="blur"/>
      <feComposite in="SourceGraphic"/>
    </filter>
    <filter id="Path_3" x="33.287" y="18.694" width="62.544" height="98.351" filterUnits="userSpaceOnUse">
      <feOffset dy="3" input="SourceAlpha"/>
      <feGaussianBlur stdDeviation="3" result="blur-2"/>
      <feFlood flood-opacity="0.161"/>
      <feComposite operator="in" in2="blur-2"/>
      <feComposite in="SourceGraphic"/>
    </filter>
    <filter id="Path_4" x="31.701" y="10.466" width="63.748" height="114.985" filterUnits="userSpaceOnUse">
      <feOffset dy="3" input="SourceAlpha"/>
      <feGaussianBlur stdDeviation="3" result="blur-3"/>
      <feFlood flood-opacity="0.161"/>
      <feComposite operator="in" in2="blur-3"/>
      <feComposite in="SourceGraphic"/>
    </filter>
    <clipPath id="clip-Blue_Helix_Slot">
      <rect width="128" height="128"/>
    </clipPath>
  </defs>
  <g id="Blue_Helix_Slot" data-name="Blue Helix Slot" clip-path="url(#clip-Blue_Helix_Slot)">
    <rect width="128" height="128" fill="#dbdbdb"/>
    <g transform="matrix(1, 0, 0, 1, 0, 0)" filter="url(#Rectangle_1)">
      <g id="Rectangle_1-2" data-name="Rectangle 1" fill="none" stroke="#7b7b7b" stroke-width="4">
        <rect width="128" height="128" stroke="none"/>
        <rect x="2" y="2" width="124" height="124" fill="none"/>
      </g>
    </g>
    <g id="White_Helix" data-name="White Helix" transform="translate(39.921 19.466)">
      <g transform="matrix(1, 0, 0, 1, -39.92, -19.47)" filter="url(#Path_3)">
        <path id="Path_3-2" data-name="Path 3" d="M528.713,6.694V35.648l-38.544,16.6v28.8" transform="translate(-444.88 21)" fill="none" stroke="#1376f8" stroke-linecap="round" stroke-linejoin="round" stroke-width="6"/>
      </g>
      <g transform="matrix(1, 0, 0, 1, -39.92, -19.47)" filter="url(#Path_4)">
        <path id="Path_4-2" data-name="Path 4" d="M490.551-1.534V37L530.3,53.956V89.451" transform="translate(-446.85 21)" fill="none" stroke="#1376f8" stroke-linecap="round" stroke-linejoin="round" stroke-width="6"/>
      </g>
      <path id="Path_12" data-name="Path 12" d="M4.079,0A4.079,4.079,0,1,0,8.159,4.079,4.079,4.079,0,0,0,4.079,0Z" transform="translate(1 65.638)" fill="#fff" stroke="#1376f8" stroke-width="3"/>
      <path id="Path_15" data-name="Path 15" d="M4.079,0A4.079,4.079,0,1,0,8.159,4.079,4.079,4.079,0,0,0,4.079,0Z" transform="translate(40 17.638)" fill="#fff" stroke="#1376f8" stroke-width="3"/>
      <path id="Path_16" data-name="Path 16" d="M4.079,0A4.079,4.079,0,1,0,8.159,4.079,4.079,4.079,0,0,0,4.079,0Z" transform="translate(0 6.638)" fill="#fff" stroke="#1376f8" stroke-width="3"/>
      <path id="Path_17" data-name="Path 17" d="M4.079,0A4.079,4.079,0,1,0,8.159,4.079,4.079,4.079,0,0,0,4.079,0Z" transform="translate(0 22.638)" fill="#fff" stroke="#1376f8" stroke-width="3"/>
      <path id="Path_36" data-name="Path 36" d="M4.079,0A4.079,4.079,0,1,0,8.159,4.079,4.079,4.079,0,0,0,4.079,0Z" transform="translate(39.449 61.718)" fill="#fff" stroke="#1376f8" stroke-width="3"/>
      <path id="Path_37" data-name="Path 37" d="M4.079,0A4.079,4.079,0,1,0,8.159,4.079,4.079,4.079,0,0,0,4.079,0Z" transform="translate(39.449 77.718)" fill="#fff" stroke="#1376f8" stroke-width="3"/>
    </g>
  </g>
</svg>
