<svg xmlns="http://www.w3.org/2000/svg" xmlns:xlink="http://www.w3.org/1999/xlink" width="128" height="128" viewBox="0 0 128 128">
  <defs>
    <filter id="Path_22" x="-5.012" y="-7.057" width="137.083" height="137.126" filterUnits="userSpaceOnUse">
      <feOffset dy="-2" input="SourceAlpha"/>
      <feGaussianBlur stdDeviation="4" result="blur"/>
      <feFlood flood-opacity="0.4"/>
      <feComposite operator="in" in2="blur"/>
      <feComposite in="SourceGraphic"/>
    </filter>
    <clipPath id="clip-Red_Lazer_Slot">
      <rect width="128" height="128"/>
    </clipPath>
  </defs>
  <g id="Red_Lazer_Slot" data-name="Red Lazer Slot" clip-path="url(#clip-Red_Lazer_Slot)">
    <rect width="128" height="128" fill="#dbdbdb"/>
    <g id="Red_Lazer" data-name="Red Lazer" transform="translate(120.071 120.068) rotate(180)">
      <g transform="matrix(-1, 0, 0, -1, 120.07, 120.07)" filter="url(#Path_22)">
        <g id="Path_22-2" data-name="Path 22" transform="translate(378.82 99.77) rotate(180)" fill="#acacac" stroke-linecap="round">
          <path d="M 315.260986328125 90.70721435546875 L 262.401611328125 37.72748184204102 L 315.2442016601562 38.31081771850586 L 316.7611694335938 38.32757186889648 L 316.7607727050781 36.81052398681641 L 316.746826171875 -16.67452621459961 L 369.7073059082031 36.27744674682617 L 315.260986328125 90.70721435546875 Z" stroke="none"/>
          <path d="M 318.2477722167969 -13.05266571044922 L 318.2607727050781 36.81011962890625 L 318.2615661621094 39.84421920776367 L 315.2276611328125 39.81071853637695 L 266.0574645996094 39.26792907714844 L 315.2623291015625 88.5848388671875 L 367.5857238769531 36.27737426757812 L 318.2477722167969 -13.05266571044922 M 315.2458801269531 -20.29636383056641 L 371.828857421875 36.27753448486328 L 315.2596130371094 92.82956695556641 L 258.7457580566406 36.18703460693359 L 315.2607727050781 36.8109016418457 L 315.2458801269531 -20.29636383056641 Z" stroke="none" fill="#7b7b7b"/>
        </g>
      </g>
    </g>
  </g>
</svg>
