<svg xmlns="http://www.w3.org/2000/svg" xmlns:xlink="http://www.w3.org/1999/xlink" width="128" height="128" viewBox="0 0 128 128">
  <defs>
    <filter id="Path_22" x="3.001" y="0.959" width="121.057" height="121.094" filterUnits="userSpaceOnUse">
      <feOffset dy="-2" input="SourceAlpha"/>
      <feGaussianBlur stdDeviation="4" result="blur"/>
      <feFlood flood-opacity="0.4"/>
      <feComposite operator="in" in2="blur"/>
      <feComposite in="SourceGraphic"/>
    </filter>
    <clipPath id="clip-Red_Laser_Slot">
      <rect width="128" height="128"/>
    </clipPath>
  </defs>
  <g id="Red_Laser_Slot" data-name="Red Laser Slot" clip-path="url(#clip-Red_Laser_Slot)">
    <g id="BackgroundComponent">
      <rect id="Rectangle_3" data-name="Rectangle 3" width="128" height="128" fill="#313134"/>
    </g>
    <g id="Red_Lazer" data-name="Red Lazer" transform="translate(112.058 112.052) rotate(180)">
      <g transform="matrix(-1, 0, 0, -1, 112.06, 112.05)" filter="url(#Path_22)">
        <g id="Path_22-2" data-name="Path 22" transform="translate(370.8 91.76) rotate(180)" fill="#555" stroke-linecap="round" stroke-linejoin="bevel">
          <path d="M 307.251953125 74.67516326904297 L 262.4016418457031 29.72273254394531 L 307.2349853515625 30.2176456451416 L 308.751953125 30.23439407348633 L 308.7515563964844 28.71735382080078 L 308.7397155761719 -16.67451477050781 L 353.6813354492188 28.25988960266113 L 307.251953125 74.67516326904297 Z" stroke="none"/>
          <path d="M 310.2406616210938 -13.05265045166016 L 310.2515563964844 28.71696472167969 L 307.2184448242188 31.71756362915039 L 266.0574645996094 31.26318359375 L 307.2533264160156 72.55278778076172 L 351.5597839355469 28.25981330871582 L 310.2406616210938 -13.05265045166016 M 307.23876953125 -20.29635620117188 L 355.8029174804688 28.25996398925781 L 307.2505798339844 76.79751586914062 L 258.7457580566406 28.18228721618652 L 307.2515563964844 28.71774864196777 L 307.23876953125 -20.29635620117188 Z" stroke="none" fill="#ffb1b1"/>
        </g>
      </g>
    </g>
  </g>
</svg>
