<svg xmlns="http://www.w3.org/2000/svg" xmlns:xlink="http://www.w3.org/1999/xlink" width="128" height="128" viewBox="0 0 128 128"><defs><clipPath id="b"><rect width="128" height="128"/></clipPath></defs><g id="a" clip-path="url(#b)"><rect width="128" height="128" fill="#dbdbdb"/><g transform="translate(13.517 -11.37)"><path d="M2.958,72.412H23.876A20.525,20.525,0,0,1,24.3,70.26L15.91,66.783a2.958,2.958,0,1,1,2.264-5.466l8.4,3.48a20.781,20.781,0,0,1,1.219-1.821L13,48.179A2.958,2.958,0,0,1,17.179,44l14.8,14.8A20.778,20.778,0,0,1,33.8,57.574l-3.48-8.4a2.958,2.958,0,0,1,5.466-2.264L39.26,55.3a20.517,20.517,0,0,1,2.152-.427V33.958a2.958,2.958,0,1,1,5.916,0V54.876a20.526,20.526,0,0,1,2.152.427l3.476-8.393a2.958,2.958,0,0,1,5.466,2.264l-3.48,8.4a20.78,20.78,0,0,1,1.821,1.219L71.561,44a2.958,2.958,0,0,1,4.183,4.183l-14.8,14.8A20.825,20.825,0,0,1,62.166,64.8l8.4-3.48a2.958,2.958,0,0,1,2.264,5.466L64.437,70.26a20.511,20.511,0,0,1,.427,2.152H98.009a2.958,2.958,0,0,1,0,5.916H64.864a20.522,20.522,0,0,1-.427,2.152l8.393,3.476a2.958,2.958,0,1,1-2.264,5.466l-8.4-3.48a20.781,20.781,0,0,1-1.219,1.821l14.8,14.8a2.958,2.958,0,1,1-4.183,4.183l-14.8-14.8a20.779,20.779,0,0,1-1.821,1.219l3.48,8.4a2.958,2.958,0,1,1-5.466,2.264l-3.476-8.393a20.512,20.512,0,0,1-2.152.427v20.918a2.958,2.958,0,1,1-5.916,0V95.864a20.526,20.526,0,0,1-2.152-.427l-3.476,8.393a2.958,2.958,0,1,1-5.466-2.264l3.48-8.4a20.777,20.777,0,0,1-1.821-1.219l-14.8,14.8A2.958,2.958,0,0,1,13,102.561l14.8-14.8a20.825,20.825,0,0,1-1.219-1.821l-8.4,3.48a2.958,2.958,0,0,1-2.264-5.466L24.3,80.481a20.515,20.515,0,0,1-.427-2.152H2.958a2.958,2.958,0,0,1,0-5.916Zm49.777,5.916a8.874,8.874,0,1,1,0-5.916h6.127a14.649,14.649,0,0,0-.789-2.6c-.016-.034-.033-.067-.047-.1s-.029-.083-.045-.125a14.877,14.877,0,0,0-7.829-7.83c-.042-.015-.085-.028-.126-.045s-.055-.027-.083-.039a14.745,14.745,0,0,0-11.148,0c-.028.013-.054.027-.083.039s-.084.03-.126.045a14.878,14.878,0,0,0-7.829,7.83c-.015.042-.027.084-.045.125s-.031.068-.047.1a14.745,14.745,0,0,0,.007,11.128c.013.028.028.054.039.083s.029.083.045.125a14.878,14.878,0,0,0,7.83,7.83c.042.015.084.027.125.045s.055.027.083.039a14.747,14.747,0,0,0,11.148,0c.028-.013.054-.027.083-.039s.083-.029.125-.044a14.877,14.877,0,0,0,7.831-7.831c.015-.042.027-.084.045-.125s.027-.055.039-.083a14.65,14.65,0,0,0,.8-2.616H52.735ZM47.328,75.37a2.958,2.958,0,1,0-2.958,2.958A2.961,2.961,0,0,0,47.328,75.37Z" fill="#faa"/></g></g></svg>