<svg xmlns="http://www.w3.org/2000/svg" xmlns:xlink="http://www.w3.org/1999/xlink" width="128" height="128" viewBox="0 0 128 128"><defs><linearGradient id="a" x1="0.5" y1="1" x2="0.5" gradientUnits="objectBoundingBox"><stop offset="0" stop-color="#fff"/><stop offset="1" stop-color="#fff"/></linearGradient><clipPath id="c"><rect width="128" height="128"/></clipPath></defs><g id="b" clip-path="url(#c)"><rect width="128" height="128" fill="#dbdbdb"/><g transform="translate(13.517 -11.37)"><path d="M98.009,72.412H77.09a20.525,20.525,0,0,0-.427-2.152l8.393-3.476a2.958,2.958,0,1,0-2.264-5.466l-8.4,3.48a20.781,20.781,0,0,0-1.219-1.821l14.8-14.8A2.958,2.958,0,0,0,83.787,44l-14.8,14.8a20.778,20.778,0,0,0-1.821-1.219l3.48-8.4a2.958,2.958,0,0,0-5.466-2.264L61.707,55.3a20.517,20.517,0,0,0-2.152-.427V33.958a2.958,2.958,0,1,0-5.916,0V54.876a20.526,20.526,0,0,0-2.152.427L48.01,46.91a2.958,2.958,0,0,0-5.466,2.264l3.48,8.4A20.78,20.78,0,0,0,44.2,58.793L29.406,44a2.958,2.958,0,0,0-4.183,4.183l14.8,14.8A20.824,20.824,0,0,0,38.8,64.8l-8.4-3.48a2.958,2.958,0,0,0-2.264,5.466l8.393,3.476a20.515,20.515,0,0,0-.427,2.152H2.958a2.958,2.958,0,0,0,0,5.916H36.1a20.525,20.525,0,0,0,.427,2.152l-8.393,3.476A2.958,2.958,0,1,0,30.4,89.423l8.4-3.48a20.78,20.78,0,0,0,1.219,1.821l-14.8,14.8a2.958,2.958,0,1,0,4.183,4.183l14.8-14.8a20.779,20.779,0,0,0,1.821,1.219l-3.48,8.4a2.958,2.958,0,1,0,5.466,2.264l3.476-8.393a20.512,20.512,0,0,0,2.152.427v20.918a2.958,2.958,0,1,0,5.916,0V95.864a20.526,20.526,0,0,0,2.152-.427l3.476,8.393a2.958,2.958,0,1,0,5.466-2.264l-3.48-8.4a20.777,20.777,0,0,0,1.821-1.219l14.8,14.8a2.958,2.958,0,0,0,4.183-4.183l-14.8-14.8a20.825,20.825,0,0,0,1.219-1.821l8.4,3.48a2.958,2.958,0,0,0,2.264-5.466l-8.393-3.476a20.515,20.515,0,0,0,.427-2.152H98.009a2.958,2.958,0,0,0,0-5.916ZM48.231,78.328a8.874,8.874,0,1,0,0-5.916H42.1a14.649,14.649,0,0,1,.789-2.6c.016-.034.033-.067.047-.1s.029-.083.045-.125a14.877,14.877,0,0,1,7.829-7.83c.042-.015.085-.028.126-.045s.055-.027.083-.039a14.745,14.745,0,0,1,11.148,0c.028.013.054.027.083.039s.084.03.126.045a14.878,14.878,0,0,1,7.829,7.83c.015.042.027.084.045.125s.031.068.047.1a14.745,14.745,0,0,1-.007,11.128c-.013.028-.028.054-.039.083s-.029.083-.045.125a14.878,14.878,0,0,1-7.83,7.83c-.042.015-.084.027-.125.045s-.055.027-.083.039a14.747,14.747,0,0,1-11.148,0c-.028-.013-.054-.027-.083-.039s-.083-.029-.125-.044a14.877,14.877,0,0,1-7.831-7.831c-.015-.042-.027-.084-.045-.125s-.027-.055-.039-.083a14.65,14.65,0,0,1-.8-2.616h6.127Zm5.407-2.958A2.958,2.958,0,1,1,56.6,78.328,2.961,2.961,0,0,1,53.638,75.37Z" transform="translate(0 0)" fill="url(#a)"/></g></g></svg>