<svg xmlns="http://www.w3.org/2000/svg" xmlns:xlink="http://www.w3.org/1999/xlink" width="128" height="128" viewBox="0 0 128 128">
  <defs>
    <filter id="Path_22" x="-3.012" y="-2.057" width="137.083" height="137.126" filterUnits="userSpaceOnUse">
      <feOffset dy="2" input="SourceAlpha"/>
      <feGaussianBlur stdDeviation="4" result="blur"/>
      <feFlood flood-opacity="0.396"/>
      <feComposite operator="in" in2="blur"/>
      <feComposite in="SourceGraphic"/>
    </filter>
    <clipPath id="clip-White_Lazer_Slot">
      <rect width="128" height="128"/>
    </clipPath>
  </defs>
  <g id="White_Lazer_Slot" data-name="White Lazer Slot" clip-path="url(#clip-White_Lazer_Slot)">
    <rect width="128" height="128" fill="#dbdbdb"/>
    <g id="White_Lazer" data-name="White Lazer" transform="translate(8.988 7.943)">
      <g transform="matrix(1, 0, 0, 1, -8.99, -7.94)" filter="url(#Path_22)">
        <g id="Path_22-2" data-name="Path 22" transform="translate(-249.76 28.24)" fill="#acacac" stroke-linecap="round">
          <path d="M 315.2614135742188 89.99974822998047 L 263.6202392578125 38.24097061157227 L 315.2386779785156 38.81078338623047 L 317.2613220214844 38.83310317993164 L 317.2607727050781 36.81038665771484 L 317.2471313476562 -15.46722030639648 L 369.0000915527344 36.27743148803711 L 315.2614135742188 89.99974822998047 Z" stroke="none"/>
          <path d="M 319.2483825683594 -10.63808441162109 L 319.2607727050781 36.80987548828125 L 319.2618103027344 40.85533142089844 L 315.2166137695312 40.81067657470703 L 268.4947204589844 40.29489517211914 L 315.2632751464844 87.16992950439453 L 366.1713562011719 36.27732467651367 L 319.2483825683594 -10.63808441162109 M 315.2458801269531 -20.29636383056641 L 371.828857421875 36.27753067016602 L 315.2596130371094 92.82956695556641 L 258.7457580566406 36.18701934814453 L 315.2607727050781 36.81090927124023 L 315.2458801269531 -20.29636383056641 Z" stroke="none" fill="#7b7b7b"/>
        </g>
      </g>
    </g>
  </g>
</svg>
